<?xml version="1.0" standalone="no"?>
<!DOCTYPE svg PUBLIC "-//W3C//DTD SVG 20010904//EN"
 "http://www.w3.org/TR/2001/REC-SVG-20010904/DTD/svg10.dtd">
<svg version="1.0" xmlns="http://www.w3.org/2000/svg"
 width="500.000000pt" height="500.000000pt" viewBox="0 0 500.000000 500.000000"
 preserveAspectRatio="xMidYMid meet">

<g transform="translate(0.000000,500.000000) scale(0.100000,-0.100000)"
fill="#000000" stroke="none">
<path d="M4515 3529 c-16 -17 -42 -37 -57 -45 -40 -21 -125 -27 -208 -15 -253
37 -315 43 -349 32 -20 -5 -67 -13 -104 -16 -61 -6 -66 -8 -50 -21 13 -9 51
-14 133 -14 63 0 180 -8 260 -16 251 -28 244 -28 286 -6 41 21 79 58 109 105
22 35 17 34 -20 -4z"/>
<path d="M3940 2971 c0 -32 72 -40 78 -8 3 14 -4 17 -37 17 -23 0 -41 -4 -41
-9z"/>
<path d="M2247 2933 c-4 -3 -7 -10 -7 -14 0 -11 29 -19 35 -10 6 11 -20 33
-28 24z"/>
<path d="M2574 2702 c-22 -15 -51 -37 -64 -49 -13 -13 -27 -23 -32 -23 -4 0
-14 -12 -22 -27 -8 -16 -15 -23 -16 -18 0 10 -20 -15 -20 -26 0 -10 90 38 150
79 41 28 56 45 58 65 4 34 -3 34 -54 -1z"/>
<path d="M2150 2712 c0 -5 7 -15 15 -22 8 -7 15 -8 15 -2 0 5 -7 15 -15 22 -8
7 -15 8 -15 2z"/>
<path d="M2208 2653 c6 -2 18 -2 25 0 6 3 1 5 -13 5 -14 0 -19 -2 -12 -5z"/>
<path d="M1672 2448 c13 -23 36 -51 51 -62 26 -19 30 -19 54 -6 33 19 41 40
15 40 -24 0 -122 49 -122 61 0 5 -5 9 -11 9 -6 0 0 -19 13 -42z"/>
<path d="M2350 2437 c-1 -37 125 -227 151 -227 19 0 7 25 -38 78 -27 31 -63
79 -80 106 -18 28 -33 48 -33 43z"/>
<path d="M1087 2414 c-4 -4 -23 -10 -42 -13 -35 -6 -35 -7 -20 -28 19 -27 61
-30 73 -5 10 18 1 58 -11 46z"/>
<path d="M2663 2350 c3 -8 11 -33 18 -55 17 -53 27 -65 56 -65 28 0 83 50 83
75 0 16 -2 16 -25 1 -45 -30 -82 -19 -120 34 -9 14 -15 18 -12 10z"/>
<path d="M735 2340 c-3 -6 1 -7 9 -4 18 7 21 14 7 14 -6 0 -13 -4 -16 -10z"/>
<path d="M3030 2283 c0 -10 7 -29 16 -41 20 -29 79 -31 94 -3 19 36 12 47 -27
47 -21 -1 -48 3 -60 7 -19 7 -23 5 -23 -10z"/>
<path d="M1320 2053 c-8 -3 -29 -12 -47 -20 -29 -14 -31 -17 -17 -30 16 -16
33 -12 77 19 14 11 23 10 47 -4 37 -21 39 -7 4 21 -27 21 -37 24 -64 14z"/>
<path d="M4163 1979 c22 -11 41 -18 44 -15 6 6 -52 36 -69 36 -7 -1 4 -10 25
-21z"/>
<path d="M1127 1939 c25 -43 51 -69 68 -69 32 0 12 36 -35 67 l-50 32 17 -30z"/>
<path d="M1200 1955 c0 -8 5 -15 10 -15 6 0 10 7 10 15 0 8 -4 15 -10 15 -5 0
-10 -7 -10 -15z"/>
<path d="M390 1828 c0 -35 142 -217 207 -264 111 -82 316 -164 405 -163 l53 0
-89 25 c-99 27 -223 82 -311 139 -66 42 -186 157 -234 224 -17 24 -31 42 -31
39z"/>
<path d="M4080 1765 c10 -20 24 -42 30 -50 31 -37 140 2 140 49 0 23 -2 24
-34 14 -36 -11 -122 -3 -131 13 -4 5 -10 9 -15 9 -4 0 0 -16 10 -35z"/>
<path d="M2590 1772 c0 -3 14 -27 31 -54 47 -73 72 -83 209 -82 104 1 123 4
203 33 94 36 122 54 132 88 6 22 6 22 -35 8 -22 -8 -47 -21 -55 -29 -13 -13
-67 -32 -160 -56 -55 -14 -147 -13 -197 3 -23 6 -61 30 -85 53 -24 22 -43 38
-43 36z"/>
<path d="M3679 1493 c5 -21 21 -36 61 -56 46 -24 64 -28 112 -25 37 3 64 11
78 23 28 25 25 32 -13 27 -45 -5 -137 13 -191 38 -56 25 -56 25 -47 -7z"/>
<path d="M3281 1280 c-1 -26 75 -134 107 -153 38 -22 42 -13 7 15 -14 11 -39
41 -57 66 -17 26 -35 49 -38 52 -4 3 -10 12 -13 20 -5 13 -5 13 -6 0z"/>
</g>
</svg>
